<svg version="1.0" xmlns="http://www.w3.org/2000/svg"
 width="300.000000pt" height="102.000000pt" viewBox="0 0 300.000000 102.000000"
 preserveAspectRatio="xMidYMid meet">
<metadata>
Created by potrace 1.10, written by Peter Selinger 2001-2011
</metadata>
<g transform="translate(0.000000,102.000000) scale(0.050000,-0.050000)"
fill="#69b645" stroke="none">
<path d="M850 1866 c-854 -113 -1048 -1226 -276 -1581 612 -281 1335 327 1133
953 -114 352 -570 480 -732 205 l-35 -59 61 -22 c56 -19 67 -15 109 34 174
202 505 -65 487 -392 -44 -768 -1116 -894 -1340 -158 -67 219 -11 502 128 649
69 73 72 52 12 -68 -94 -185 -70 -312 57 -312 80 0 153 96 215 281 62 186 159
324 283 403 119 75 92 93 -102 67z"/>
<path d="M2125 1348 c-18 -8 -25 -86 -25 -290 l0 -278 60 0 c59 0 60 1 60 110
0 104 3 110 50 110 53 0 86 -70 62 -132 -25 -64 101 -127 137 -69 19 31 -24
188 -59 213 -29 22 -27 29 19 75 142 142 -101 351 -304 261z m223 -133 c30
-48 -7 -103 -75 -111 -50 -6 -53 -2 -53 76 0 91 79 113 128 35z"/>
<path d="M4484 1336 c-28 -28 -34 -490 -6 -533 9 -14 38 -23 64 -20 47 7 48
10 54 264 6 293 -26 375 -112 289z"/>
<path d="M4781 1323 c-16 -31 -14 -47 10 -72 54 -53 116 -23 106 51 -9 63 -86
76 -116 21z"/>
<path d="M5573 1347 c-7 -8 -13 -138 -13 -290 l0 -277 50 0 c51 0 57 11 51
105 -6 81 35 67 71 -25 25 -63 43 -80 81 -80 72 0 77 47 14 158 l-56 100 45
47 c52 56 57 111 11 129 -23 9 -51 -7 -87 -51 -73 -87 -87 -79 -72 39 17 123
-36 203 -95 145z"/>
<path d="M885 1292 c-12 -26 -70 -74 -128 -105 -88 -48 -112 -74 -151 -163
l-46 -105 49 -19 c49 -18 49 -19 18 -110 -37 -108 -25 -155 37 -146 34 5 51
28 72 101 28 102 34 105 112 76 49 -19 50 -21 21 -90 -38 -90 -37 -149 3 -164
41 -16 81 27 103 113 16 59 26 69 70 65 95 -11 131 222 53 348 -31 50 -39 86
-30 134 12 63 9 68 -65 90 -100 30 -93 31 -118 -25z m74 -201 c45 -54 18 -120
-53 -127 -55 -6 -67 1 -78 45 -22 90 74 151 131 82z"/>
<path d="M3544 1176 c-34 -34 -31 -48 37 -224 63 -165 52 -252 -31 -252 -44 0
-36 -75 9 -90 93 -29 147 38 249 313 82 219 83 223 42 257 -45 37 -82 -4 -110
-121 -29 -118 -51 -126 -69 -24 -24 131 -78 190 -127 141z"/>
<path d="M2668 1165 c-77 -52 -93 -248 -27 -332 70 -88 299 -67 299 28 0 45
-59 53 -118 16 -49 -31 -102 -9 -102 42 0 36 13 41 109 41 123 0 149 31 110
132 -31 83 -191 126 -271 73z m168 -110 c5 -27 -7 -35 -55 -35 -58 0 -81 33
-47 68 26 25 95 3 102 -33z"/>
<path d="M3111 1136 c-47 -68 -42 -265 9 -316 84 -84 300 -34 300 69 0 82
-106 88 -127 8 -21 -84 -82 -35 -89 71 -8 127 73 181 103 69 16 -62 101 -42
109 26 13 112 -236 171 -305 73z"/>
<path d="M4020 1140 c-117 -117 -32 -360 126 -360 102 0 174 45 174 109 0 82
-106 88 -127 8 -21 -84 -82 -35 -89 71 -8 127 73 181 103 69 16 -62 101 -42
109 26 13 108 -207 166 -296 77z"/>
<path d="M4793 1165 c-9 -14 -19 -248 -14 -351 1 -28 14 -35 56 -30 l55 6 0
190 c0 179 -2 190 -43 196 -24 4 -48 -1 -54 -11z"/>
<path d="M5100 1140 c-119 -119 -32 -360 131 -360 130 0 231 100 160 159 -40
34 -111 7 -111 -42 0 -99 -90 -33 -96 71 -8 127 73 182 103 69 15 -58 101 -43
110 20 16 115 -204 176 -297 83z"/>
</g>
</svg>
